#N canvas 393 245 2204 1156 12;
#X obj 728 322 dac~;
#X obj 248 88 metro;
#X obj 33 671 vline~;
#X obj 132 670 vline~;
#X obj 133 695 osc~;
#X obj 247 680 vline~;
#X obj 206 701 pow~ 1.5;
#X obj 132 722 *~;
#X obj 283 16 loadbang;
#X floatatom 284 67 5 0 0 0 - - - 0;
#X obj 247 116 bng 19 250 50 0 empty empty empty 0 -10 0 12 #fcfcfc #000000 #000000;
#X obj 248 141 int 1;
#X obj 294 162 + 1;
#X floatatom 249 166 5 0 0 0 - - - 0;
#X obj 199 44 tgl 19 0 empty empty empty 0 -10 0 12 #fcfcfc #000000 #000000 0 1;
#X obj 249 189 % 8;
#X obj 249 214 + 1;
#X floatatom 248 237 5 0 0 0 - - - 0;
#X obj 30 271 sel 1;
#X obj 31 294 bng 19 250 50 0 empty empty empty 0 -10 0 12 #fcfcfc #000000 #000000;
#X obj 93 294 bng 19 250 50 0 empty empty empty 0 -10 0 12 #fcfcfc #000000 #000000;
#X obj 92 271 sel 2;
#X obj 154 294 bng 19 250 50 0 empty empty empty 0 -10 0 12 #fcfcfc #000000 #000000;
#X obj 153 271 sel 3;
#X obj 217 292 bng 19 250 50 0 empty empty empty 0 -10 0 12 #fcfcfc #000000 #000000;
#X obj 216 269 sel 4;
#X obj 278 292 bng 19 250 50 0 empty empty empty 0 -10 0 12 #fcfcfc #000000 #000000;
#X obj 277 269 sel 5;
#X obj 334 293 bng 19 250 50 0 empty empty empty 0 -10 0 12 #fcfcfc #000000 #000000;
#X obj 394 294 bng 19 250 50 0 empty empty empty 0 -10 0 12 #fcfcfc #000000 #000000;
#X obj 457 293 bng 19 250 50 0 empty empty empty 0 -10 0 12 #fcfcfc #000000 #000000;
#X obj 333 270 sel 6;
#X obj 394 270 sel 7;
#X obj 457 268 sel 8;
#X obj 1274 736 *~;
#X obj 1360 695 vline~;
#X obj 1358 719 pow~ 1.5;
#X obj 1292 629 bng 19 250 50 0 empty empty empty 0 -10 0 12 #fcfcfc #000000 #000000;
#X obj 1237 665 noise~;
#X obj 1607 699 vline~;
#X obj 1605 723 pow~ 1.5;
#X obj 1529 618 bng 19 250 50 0 empty empty empty 0 -10 0 12 #fcfcfc #000000 #000000;
#X obj 1472 674 noise~;
#X obj 1559 752 *~;
#X obj 1388 846 *~;
#X floatatom 1698 728 5 0 0 0 - - - 0;
#X obj 1696 664 loadbang;
#X text 109 237 Sequencer;
#X text 122 529 Sub kick;
#X text 1320 627 Open Hat;
#X text 1559 619 Closed Hat;
#X text 291 207 Metronome \, counts from 1 to 8 in a loop;
#X obj 727 126 loadbang;
#X obj 731 284 *~;
#X floatatom 730 188 5 0 0 0 - - - 0;
#X text 718 342 DAC Out;
#X text 327 69 BPM: 135;
#X text 78 44 START DSP HERE:;
#X obj 945 616 bng 19 250 50 0 empty empty empty 0 -10 0 12 #fcfcfc #000000 #000000;
#X msg 1697 697 0.15;
#X msg 1535 669 1 3 \, 0 30 3;
#X msg 729 153 0.5;
#X msg 33 644 0.3 0 \, 0 10 0;
#X obj 580 639 bng 19 250 50 0 empty empty empty 0 -10 0 12 #fcfcfc #000000 #000000;
#X obj 470 706 vline~;
#X obj 569 705 vline~;
#X obj 570 730 osc~;
#X obj 684 715 vline~;
#X obj 643 736 pow~ 1.5;
#X obj 569 757 *~;
#X msg 470 679 0.3 0 \, 0 10 0;
#X obj 1471 718 bp~ 6000 8;
#X obj 29 335 s one;
#X obj 100 559 r one;
#X obj 141 588 bng 19 250 50 0 empty empty empty 0 -10 0 12 #fcfcfc #000000 #000000;
#X obj 85 333 s two;
#X obj 146 333 s three;
#X obj 213 333 s four;
#X obj 274 332 s five;
#X obj 333 333 s six;
#X obj 388 331 s seven;
#X obj 455 327 s eight;
#X obj 136 841 s~ out1;
#X obj 646 272 r~ out1;
#X text 564 559 Impulse, f 8;
#X obj 570 834 s~ out2;
#X obj 655 235 r~ out2;
#X obj 723 233 r~ out3;
#X obj 792 232 r~ out4;
#X obj 789 267 r~ out5;
#X obj 787 295 r~ out6;
#X obj 1099 278 phasor~;
#X obj 1260 244 vline~;
#X obj 1261 272 pow~ 1.5;
#X obj 1244 320 *~;
#X obj 1174 147 bng 19 250 50 0 empty empty empty 0 -10 0 12 #fcfcfc #000000 #000000;
#X obj 1248 488 s~ out3;
#X obj 963 98 r one;
#X obj 1023 100 r two;
#X obj 1081 100 r three;
#X obj 1145 101 r four;
#X obj 1120 317 vcf~ 1, f 9;
#X obj 1152 254 vline~;
#X obj 1169 286 *~;
#X floatatom 1463 263 5 0 0 0 - - - 0;
#X obj 1085 243 mtof;
#X floatatom 1522 264 5 0 0 0 - - - 0;
#X msg 134 639 250 0 \, 55 40 0;
#X obj 1201 99 r five;
#X obj 1261 101 r six;
#X obj 1319 101 r seven;
#X obj 1383 102 r eight;
#X obj 1306 318 * -1;
#X obj 1244 383 clip~;
#X msg 1146 219 1 5 \, 0 100 5;
#X floatatom 265 802 5 0 0 0 - - - 0;
#X msg 264 773 500;
#X obj 264 746 loadbang;
#X obj 127 782 lop~;
#X obj 122 751 clip~ -0.5 0.5;
#X floatatom 1525 388 5 0 0 0 - - - 0;
#X obj 1521 334 loadbang;
#X obj 1524 416 * 0.01;
#X obj 664 587 r eight;
#X obj 1181 568 r one;
#X obj 1241 570 r two;
#X obj 1299 570 r three;
#X obj 1363 571 r four;
#X obj 1419 569 r five;
#X obj 1479 571 r six;
#X obj 1537 571 r seven;
#X obj 1601 572 r eight;
#X obj 1386 884 s~ out4;
#X obj 1233 702 bp~ 9000 10;
#X text 1695 630 Volume;
#X obj 1250 415 *~;
#X obj 899 575 r three;
#X obj 1036 571 r seven;
#X obj 956 912 s~ out6;
#X obj 1094 666 vline~;
#X obj 947 752 +~;
#X floatatom 944 725 5 0 0 0 - - - 0;
#X obj 1002 752 *~;
#X obj 975 778 osc~;
#X floatatom 1050 725 5 0 0 0 - - - 0;
#X obj 1018 778 *~;
#X obj 1096 725 pow~ 1.5;
#X obj 942 673 loadbang;
#X obj 1024 668 loadbang;
#X msg 1049 694 100;
#X msg 943 700 500;
#X msg 939 645 1 3 \, 0 40 3;
#X obj 954 805 clip~ -0.1 0.1;
#X obj 979 704 osc~ 500;
#X obj 842 583 r one;
#X obj 971 573 r five;
#X msg 1248 213 1 4 \, 0.9 70 4 \, 0 30 70;
#X obj 1241 352 *~ 7;
#X text 676 85 Master Volume control;
#X obj 966 178 select 0 1 2 3 4 5 6;
#X msg 960 208 33;
#X msg 1003 208 36;
#X msg 1052 205 57;
#X msg 1105 205 40;
#X obj 1440 328 loadbang;
#X obj 1453 215 loadbang;
#X text 1166 60 Acid Synth;
#X text 1456 187 Cutoff;
#X obj 1522 213 loadbang;
#X text 1529 186 Resonance;
#X text 1439 301 Volume;
#X text 1524 308 Distortion;
#X obj 1250 446 hip~ 800;
#X text 1383 536 High hats;
#X text 944 529 Beep;
#X msg 284 40 130;
#X obj 1173 697 noise~;
#X obj 960 880 *~ 1;
#X msg 1524 362 400;
#X obj 168 559 r four;
#X obj 536 587 r five;
#X obj 2 273;
#X msg 693 670 1 4 \, 0 30 4;
#X msg 571 674 300 0 \, 55 30 0;
#X obj 568 806 bp~ 500 2;
#X obj 566 782 *~ 0.4;
#X msg 257 635 1 4 \, 0.4 60 4 \, 0 200 60, f 15;
#X obj 140 816 *~ 1;
#X msg 1438 354 0.3;
#X msg 1469 241 1000;
#X msg 1520 237 6;
#X obj 962 845 hip~ 4000;
#X obj 945 144 random 7;
#X msg 1288 673 1 5 \, 0.5 15 5 \, 0 200 15;
#X obj 1184 736 bp~ 500 8;
#X connect 1 0 10 0;
#X connect 2 0 119 0;
#X connect 3 0 4 0;
#X connect 4 0 7 0;
#X connect 5 0 6 0;
#X connect 6 0 7 1;
#X connect 7 0 119 0;
#X connect 8 0 175 0;
#X connect 9 0 1 1;
#X connect 10 0 11 0;
#X connect 11 0 12 0;
#X connect 11 0 13 0;
#X connect 12 0 11 1;
#X connect 13 0 15 0;
#X connect 14 0 1 0;
#X connect 15 0 16 0;
#X connect 16 0 17 0;
#X connect 17 0 18 0;
#X connect 17 0 21 0;
#X connect 17 0 23 0;
#X connect 17 0 25 0;
#X connect 17 0 27 0;
#X connect 17 0 31 0;
#X connect 17 0 32 0;
#X connect 17 0 33 0;
#X connect 18 0 19 0;
#X connect 19 0 72 0;
#X connect 20 0 75 0;
#X connect 21 0 20 0;
#X connect 22 0 76 0;
#X connect 23 0 22 0;
#X connect 24 0 77 0;
#X connect 25 0 24 0;
#X connect 26 0 78 0;
#X connect 27 0 26 0;
#X connect 28 0 79 0;
#X connect 29 0 80 0;
#X connect 30 0 81 0;
#X connect 31 0 28 0;
#X connect 32 0 29 0;
#X connect 33 0 30 0;
#X connect 34 0 44 0;
#X connect 35 0 36 0;
#X connect 36 0 34 1;
#X connect 37 0 193 0;
#X connect 38 0 133 0;
#X connect 39 0 40 0;
#X connect 40 0 43 1;
#X connect 41 0 60 0;
#X connect 42 0 71 0;
#X connect 43 0 44 0;
#X connect 44 0 132 0;
#X connect 45 0 44 1;
#X connect 46 0 59 0;
#X connect 52 0 61 0;
#X connect 53 0 0 0;
#X connect 53 0 0 1;
#X connect 54 0 53 1;
#X connect 58 0 151 0;
#X connect 59 0 45 0;
#X connect 60 0 39 0;
#X connect 61 0 54 0;
#X connect 62 0 2 0;
#X connect 63 0 70 0;
#X connect 63 0 183 0;
#X connect 63 0 182 0;
#X connect 64 0 185 0;
#X connect 65 0 66 0;
#X connect 66 0 69 0;
#X connect 67 0 68 0;
#X connect 68 0 69 1;
#X connect 69 0 185 0;
#X connect 70 0 64 0;
#X connect 71 0 43 0;
#X connect 73 0 74 0;
#X connect 74 0 107 0;
#X connect 74 0 62 0;
#X connect 74 0 186 0;
#X connect 83 0 53 0;
#X connect 86 0 53 0;
#X connect 87 0 53 0;
#X connect 88 0 53 0;
#X connect 89 0 53 0;
#X connect 90 0 53 0;
#X connect 91 0 101 0;
#X connect 92 0 93 0;
#X connect 93 0 94 1;
#X connect 94 0 157 0;
#X connect 95 0 156 0;
#X connect 95 0 114 0;
#X connect 95 0 192 0;
#X connect 97 0 95 0;
#X connect 98 0 95 0;
#X connect 99 0 95 0;
#X connect 100 0 95 0;
#X connect 101 1 94 0;
#X connect 102 0 103 0;
#X connect 103 0 101 1;
#X connect 104 0 103 1;
#X connect 105 0 91 0;
#X connect 106 0 101 2;
#X connect 107 0 3 0;
#X connect 108 0 95 0;
#X connect 109 0 95 0;
#X connect 110 0 95 0;
#X connect 111 0 95 0;
#X connect 112 0 113 1;
#X connect 113 0 135 0;
#X connect 114 0 102 0;
#X connect 115 0 118 1;
#X connect 116 0 115 0;
#X connect 117 0 116 0;
#X connect 118 0 187 0;
#X connect 119 0 118 0;
#X connect 120 0 122 0;
#X connect 121 0 178 0;
#X connect 122 0 113 2;
#X connect 122 0 112 0;
#X connect 123 0 63 0;
#X connect 124 0 41 0;
#X connect 125 0 41 0;
#X connect 126 0 41 0;
#X connect 127 0 41 0;
#X connect 128 0 41 0;
#X connect 128 0 37 0;
#X connect 129 0 41 0;
#X connect 130 0 41 0;
#X connect 131 0 41 0;
#X connect 131 0 37 0;
#X connect 133 0 34 0;
#X connect 135 0 172 0;
#X connect 136 0 58 0;
#X connect 137 0 58 0;
#X connect 139 0 146 0;
#X connect 140 0 143 0;
#X connect 141 0 140 0;
#X connect 142 0 140 1;
#X connect 143 0 145 0;
#X connect 144 0 142 1;
#X connect 145 0 152 0;
#X connect 146 0 145 1;
#X connect 147 0 150 0;
#X connect 148 0 149 0;
#X connect 149 0 144 0;
#X connect 150 0 141 0;
#X connect 151 0 139 0;
#X connect 152 0 191 0;
#X connect 153 0 142 0;
#X connect 154 0 58 0;
#X connect 155 0 58 0;
#X connect 156 0 92 0;
#X connect 157 0 113 0;
#X connect 159 0 160 0;
#X connect 159 1 160 0;
#X connect 159 2 160 0;
#X connect 159 3 160 0;
#X connect 159 4 161 0;
#X connect 159 5 162 0;
#X connect 159 6 163 0;
#X connect 159 7 163 0;
#X connect 160 0 105 0;
#X connect 161 0 105 0;
#X connect 162 0 105 0;
#X connect 163 0 105 0;
#X connect 164 0 188 0;
#X connect 165 0 189 0;
#X connect 168 0 190 0;
#X connect 172 0 96 0;
#X connect 175 0 9 0;
#X connect 176 0 194 0;
#X connect 177 0 138 0;
#X connect 178 0 120 0;
#X connect 179 0 74 0;
#X connect 180 0 63 0;
#X connect 182 0 67 0;
#X connect 183 0 65 0;
#X connect 184 0 85 0;
#X connect 185 0 184 0;
#X connect 186 0 5 0;
#X connect 187 0 82 0;
#X connect 188 0 135 1;
#X connect 189 0 104 0;
#X connect 190 0 106 0;
#X connect 191 0 177 0;
#X connect 192 0 159 0;
#X connect 193 0 35 0;
#X connect 194 0 34 0;
