#N canvas 76 87 2319 1127 12;
#X obj 1289 482 dac~;
#X obj 800 98 metro;
#X obj 157 745 vline~;
#X obj 256 744 vline~;
#X obj 257 769 osc~;
#X obj 371 754 vline~;
#X obj 330 775 pow~ 1.5;
#X obj 256 796 *~;
#X obj 817 -11 loadbang;
#X floatatom 840 75 5 0 0 0 - - - 0;
#X obj 799 126 bng 19 250 50 0 empty empty empty 0 -10 0 12 #fcfcfc #000000 #000000;
#X obj 800 151 int 1;
#X obj 846 172 + 1;
#X floatatom 801 176 5 0 0 0 - - - 0;
#X obj 751 54 tgl 19 0 empty empty empty 0 -10 0 12 #00ff04 #000000 #000000 0 1;
#X obj 801 199 % 8;
#X obj 801 224 + 1;
#X floatatom 800 247 5 0 0 0 - - - 0;
#X obj 582 281 sel 1;
#X obj 583 304 bng 19 250 50 0 empty empty empty 0 -10 0 12 #fcfcfc #000000 #000000;
#X obj 645 304 bng 19 250 50 0 empty empty empty 0 -10 0 12 #fcfcfc #000000 #000000;
#X obj 644 281 sel 2;
#X obj 706 304 bng 19 250 50 0 empty empty empty 0 -10 0 12 #fcfcfc #000000 #000000;
#X obj 705 281 sel 3;
#X obj 769 302 bng 19 250 50 0 empty empty empty 0 -10 0 12 #fcfcfc #000000 #000000;
#X obj 768 279 sel 4;
#X obj 830 302 bng 19 250 50 0 empty empty empty 0 -10 0 12 #fcfcfc #000000 #000000;
#X obj 829 279 sel 5;
#X obj 886 303 bng 19 250 50 0 empty empty empty 0 -10 0 12 #fcfcfc #000000 #000000;
#X obj 946 304 bng 19 250 50 0 empty empty empty 0 -10 0 12 #fcfcfc #000000 #000000;
#X obj 1009 303 bng 19 250 50 0 empty empty empty 0 -10 0 12 #fcfcfc #000000 #000000;
#X obj 885 280 sel 6;
#X obj 946 280 sel 7;
#X obj 1009 278 sel 8;
#X obj 1888 766 vline~;
#X obj 1886 790 pow~ 1.5;
#X obj 1810 685 bng 19 250 50 0 empty empty empty 0 -10 0 12 #fcfcfc #000000 #000000;
#X obj 1753 741 noise~;
#X obj 1840 819 *~;
#X obj 1669 913 *~;
#X floatatom 2027 793 5 0 0 0 - - - 0;
#X obj 2025 729 loadbang;
#X text 661 247 Sequencer;
#X text 246 603 Sub kick;
#X text 1974 606 Closed Hat;
#X text 843 217 Metronome \, counts from 1 to 8 in a loop;
#X obj 1271 244 loadbang;
#X obj 1274 417 *~;
#X floatatom 1274 306 5 0 0 0 - - - 0;
#X text 1285 507 DAC Out;
#X text 579 14 START DSP HERE:;
#X obj 1448 687 bng 19 250 50 0 empty empty empty 0 -10 0 12 #fcfcfc #000000 #000000;
#X msg 2026 762 0.15;
#X msg 1273 271 0.5;
#X msg 157 718 0.3 0 \, 0 10 0;
#X obj 758 726 bng 19 250 50 0 empty empty empty 0 -10 0 12 #fcfcfc #000000 #000000;
#X obj 648 793 vline~;
#X obj 747 792 vline~;
#X obj 748 817 osc~;
#X obj 862 802 vline~;
#X obj 821 823 pow~ 1.5;
#X obj 747 844 *~;
#X msg 648 766 0.3 0 \, 0 10 0;
#X obj 1752 785 bp~ 6000 8;
#X obj 581 345 s one;
#X obj 224 633 r one;
#X obj 265 662 bng 19 250 50 0 empty empty empty 0 -10 0 12 #fcfcfc #000000 #000000;
#X obj 637 343 s two;
#X obj 698 343 s three;
#X obj 765 343 s four;
#X obj 826 342 s five;
#X obj 885 343 s six;
#X obj 940 341 s seven;
#X obj 1007 337 s eight;
#X obj 260 915 s~ out1;
#X obj 1342 267 r~ out1;
#X obj 876 1006 s~ out2;
#X obj 1341 292 r~ out2;
#X obj 1341 319 r~ out3;
#X obj 1339 346 r~ out4;
#X obj 1339 372 r~ out5;
#X obj 1339 397 r~ out6;
#X obj 1694 301 phasor~;
#X obj 1855 267 vline~;
#X obj 1856 295 pow~ 1.5;
#X obj 1839 343 *~;
#X obj 1769 170 bng 19 250 50 0 empty empty empty 0 -10 0 12 #fcfcfc #000000 #000000;
#X obj 1843 511 s~ out3;
#X obj 1558 121 r one;
#X obj 1618 123 r two;
#X obj 1676 123 r three;
#X obj 1740 124 r four;
#X obj 1715 340 vcf~ 1, f 9;
#X obj 1747 277 vline~;
#X obj 1764 309 *~;
#X floatatom 2051 257 5 0 0 0 - - - 0;
#X obj 1680 266 mtof;
#X floatatom 2117 287 5 0 0 0 - - - 0;
#X msg 258 713 250 0 \, 55 40 0;
#X obj 1796 122 r five;
#X obj 1856 124 r six;
#X obj 1914 124 r seven;
#X obj 1978 125 r eight;
#X obj 1979 540 * -1;
#X obj 1856 401 clip~, f 7;
#X msg 1741 242 1 5 \, 0 100 5;
#X floatatom 389 876 5 0 0 0 - - - 0;
#X msg 388 847 500;
#X obj 388 820 loadbang;
#X obj 251 856 lop~;
#X obj 246 825 clip~ -0.5 0.5;
#X obj 869 672 r eight;
#X obj 1747 640 r one;
#X obj 1807 642 r two;
#X obj 1865 642 r three;
#X obj 1929 643 r four;
#X obj 1985 641 r five;
#X obj 2045 643 r six;
#X obj 2103 643 r seven;
#X obj 2167 644 r eight;
#X obj 1667 951 s~ out4;
#X text 2024 695 Volume;
#X obj 1845 438 *~;
#X obj 1397 639 r three;
#X obj 1539 642 r seven;
#X obj 1459 983 s~ out6;
#X obj 1597 737 vline~;
#X obj 1450 823 +~;
#X floatatom 1447 796 5 0 0 0 - - - 0;
#X obj 1505 823 *~;
#X obj 1478 849 osc~;
#X floatatom 1553 796 5 0 0 0 - - - 0;
#X obj 1541 856 *~;
#X obj 1588 832 pow~ 1.5;
#X obj 1445 744 loadbang;
#X obj 1527 739 loadbang;
#X msg 1442 716 1 3 \, 0 40 3;
#X obj 1482 775 osc~ 500;
#X obj 1340 647 r one;
#X obj 1474 644 r five;
#X msg 1843 236 1 4 \, 0.9 70 4 \, 0 30 70;
#X obj 1836 375 *~ 7;
#X text 1226 217 Master Volume control;
#X msg 1494 238 33;
#X msg 1590 235 36;
#X msg 1697 236 57;
#X msg 1624 235 40;
#X obj 1959 386 loadbang;
#X obj 1077 19 loadbang;
#X text 1761 83 Acid Synth;
#X text 2038 227 Cutoff;
#X obj 2117 236 loadbang;
#X text 2124 209 Resonance;
#X text 1958 359 Volume;
#X text 2051 346 Distortion;
#X obj 1845 469 hip~ 800;
#X text 1479 600 Beep;
#X obj 272 631 r four;
#X obj 806 672 r five;
#X msg 871 757 1 4 \, 0 30 4;
#X obj 264 890 *~ 1;
#X msg 2115 260 6;
#X msg 1816 736 1 5 \, 0 30 5;
#X msg 749 761 350 0 \, 55 40 0;
#X obj 746 893 bp~ 300 2;
#X obj 1479 193 select 0 1 2 3 4 5 6 7 8 9 10 11 12;
#X msg 1659 236 45;
#X obj 382 557 bng 19 250 50 0 empty empty empty 0 -10 0 12 #fcfcfc #000000 #000000;
#X obj 276 514 r two;
#X obj 334 514 r three;
#X obj 409 509 r five;
#X obj 469 511 r six;
#X obj 527 511 r seven;
#X obj 591 512 r eight;
#X floatatom 1427 177 5 0 0 0 - - - 0;
#X obj 1466 137 random 13;
#X msg 381 709 1 4 \, 0.4 60 4 \, 0 300 60, f 15;
#X obj 1046 891 *~;
#X obj 1111 821 vline~;
#X obj 1109 845 pow~ 1.5;
#X obj 1037 755 bng 19 250 50 0 empty empty empty 0 -10 0 12 #fcfcfc #000000 #000000;
#X obj 988 791 noise~;
#X obj 924 823 noise~;
#X obj 984 828 bp~ 9000 5;
#X msg 1039 799 1 5 \, 0.3 15 5 \, 0 200 15;
#X obj 935 862 bp~ 700 8;
#X obj 365 612 select 0;
#X text 854 642 Snare;
#X obj 1057 644 bng 19 250 50 0 empty empty empty 0 -10 0 12 #fcfcfc #000000 #000000;
#X obj 846 595 r one;
#X obj 906 597 r two;
#X obj 964 597 r three;
#X obj 1028 598 r four;
#X obj 1084 596 r five;
#X obj 1144 598 r six;
#X obj 1202 598 r seven;
#X obj 1266 599 r eight;
#X obj 1045 697 select 0;
#X obj 1030 924 *~ 0.4;
#X obj 744 869 *~ 0.4;
#X obj 361 585 random 20;
#X obj 1041 670 random 20;
#X obj 1982 286 * 100;
#X obj 1468 886 clip~ -0.06 0.06;
#X obj 1465 916 hip~ 2000;
#X msg 1446 771 100;
#X msg 1552 765 1000;
#X obj 1463 951 *~ 2;
#X text 178 294 creation arguments are OSC address;
#X text 180 255 set message to change OSC address;
#X text 164 48 1 Set IP Address : network address;
#X text 164 68 2 Set Ports (sending and listening);
#X text 164 87 3 Set OSC Addresses (routing osc data;
#X text 155 26 Key Settings;
#X floatatom 44 211 5 0 0 0 - - - 0;
#N canvas 599 290 515 498 oscReceive 1;
#X obj 55 184 netreceive -u -b;
#X msg 78 143 listen 0;
#X text 152 143 stop listening;
#X text 64 58 packets from network;
#X text 173 177 UDP packets \, binary output, f 13;
#X obj 45 314 print;
#X obj 45 272 oscparse;
#X text 150 114 listen on port 8000;
#X obj 177 269 oscparse;
#X obj 177 293 list trim;
#X floatatom -56 465 5 0 0 0 - - - 0;
#X text 241 267 Parse the OSC message;
#X obj 177 320 route unity;
#X obj -56 428 route trigger;
#X obj -56 501 s osctrig;
#X msg 66 115 listen 8000;
#X obj 66 84 loadbang;
#X obj 49 429 route playseq;
#X floatatom 53 462 5 0 0 0 - - - 0;
#X obj 52 502 s oscplayseq;
#X obj 151 429 route pitching;
#X floatatom 156 463 5 0 0 0 - - - 0;
#X obj 158 497 s cutoff;
#X obj 271 430 route impact;
#X floatatom 280 466 5 0 0 0 - - - 0;
#X obj 277 493 s snare;
#X floatatom 381 465 5 0 0 0 - - - 0;
#X obj 373 429 route dlc;
#X obj 379 492 s sub;
#X connect 0 0 6 0;
#X connect 0 0 8 0;
#X connect 1 0 0 0;
#X connect 6 0 5 0;
#X connect 8 0 9 0;
#X connect 9 0 12 0;
#X connect 10 0 14 0;
#X connect 12 0 13 0;
#X connect 12 0 17 0;
#X connect 12 0 20 0;
#X connect 12 0 23 0;
#X connect 12 0 27 0;
#X connect 13 0 10 0;
#X connect 15 0 0 0;
#X connect 16 0 15 0;
#X connect 17 0 18 0;
#X connect 18 0 19 0;
#X connect 20 0 21 0;
#X connect 21 0 22 0;
#X connect 23 0 24 0;
#X connect 24 0 25 0;
#X connect 26 0 28 0;
#X connect 27 0 26 0;
#X restore 47 142 pd oscReceive;
#X obj 47 36 tgl 15 0 empty empty empty 17 7 0 10 #fcfcfc #000000 #000000 0 1;
#X msg 47 61 \; pd dsp \$1;
#X obj 45 295 oscformat PD message;
#X msg 77 256 set PD message;
#N canvas 870 408 450 300 oscSend 0;
#X msg 158 207 disconnect;
#X obj 61 253 netsend -u -b;
#X obj 59 55 list prepend send;
#X obj 59 80 list trim;
#X msg 150 175 connect 127.0.0.1 8001;
#X obj 59 29 r oscOut;
#X text 301 163 send to port 8001;
#X msg 147 148 connect localhost 8001;
#X obj 147 108 loadbang;
#X connect 0 0 1 0;
#X connect 2 0 3 0;
#X connect 3 0 1 0;
#X connect 4 0 1 0;
#X connect 5 0 2 0;
#X connect 7 0 1 0;
#X connect 8 0 7 0;
#X restore 47 118 pd oscSend;
#X obj 45 338 s oscOut;
#X obj 895 -8 r osctrig;
#X obj 2033 520 * 0.04;
#X obj 2052 375 - 100;
#X obj 2052 401 * -1;
#X floatatom 2052 453 5 0 0 0 - - - 0;
#X obj 2051 425 + 120;
#X floatatom 1058 79 5 0 0 0 - - - 0;
#X obj 1058 108 * 0.2;
#X floatatom 1056 135 5 0 0 0 - - - 0;
#X obj 874 48 -;
#X msg 872 21 150;
#X text 790 50 Tempo (ms);
#X msg 1062 54 10;
#X obj 694 14 r oscplayseq;
#X msg 1955 412 1.5;
#X obj 932 40 r cutoff;
#X obj 330 1131 r snare;
#X obj 274 1366 *~;
#X obj 339 1296 vline~;
#X obj 337 1320 pow~ 1.5;
#X obj 216 1266 noise~;
#X obj 152 1298 noise~;
#X obj 212 1303 bp~ 9000 5;
#X obj 163 1337 bp~ 700 8;
#X obj 258 1399 *~ 0.4;
#X obj 256 1434 s~ out7;
#X obj 1339 421 r~ out7;
#X msg 267 1274 1 5 \, 0.6 25 5 \, 0 400 45;
#X obj 277 1185 bng 19 250 50 0 empty empty empty 0 -10 0 12 #fcfcfc #000000 #000000;
#X obj 524 1270 vline~;
#X obj 623 1269 vline~;
#X obj 624 1294 osc~;
#X obj 738 1279 vline~;
#X obj 697 1300 pow~ 1.5;
#X obj 623 1321 *~;
#X msg 524 1243 0.3 0 \, 0 10 0;
#X obj 632 1187 bng 19 250 50 0 empty empty empty 0 -10 0 12 #fcfcfc #000000 #000000;
#X msg 625 1238 250 0 \, 55 40 0;
#X floatatom 756 1401 5 0 0 0 - - - 0;
#X msg 755 1372 500;
#X obj 755 1345 loadbang;
#X obj 618 1381 lop~;
#X obj 613 1350 clip~ -0.5 0.5;
#X obj 631 1415 *~ 1;
#X msg 162 346;
#X text 437 1034 USER Input Here!;
#X text 273 1102 Additional Snare;
#X obj 627 1440 s~ out8;
#X obj 625 1126 r sub;
#X obj 1340 444 r~ out8;
#X msg 748 1236 1 4 \, 0.8 60 4 \, 0 300 90, f 15;
#X text 592 1102 Additional Sub;
#X text 850 1082 Additional Sub and Snare are used for collision sound addition in Unity! Music start is set at start of Unity scene \, as well as distortion \, pitch \, and tempo are controlled in Unity by collected objects as well!;
#X text 66 512 semi-random sub kicks;
#X text 5 635 always kicks on beats 1 and 4;
#X text 572 676 always kicks on beats 5 and 8;
#X text 1166 20 OSCTRIG controls tempo from Unity input;
#X text 1116 57 CUTOFF controls cutoff/distortion from Unity input;
#X connect 1 0 10 0;
#X connect 2 0 110 0;
#X connect 3 0 4 0;
#X connect 4 0 7 0;
#X connect 5 0 6 0;
#X connect 6 0 7 1;
#X connect 7 0 110 0;
#X connect 8 0 232 0;
#X connect 9 0 1 1;
#X connect 10 0 11 0;
#X connect 11 0 12 0;
#X connect 11 0 13 0;
#X connect 12 0 11 1;
#X connect 13 0 15 0;
#X connect 14 0 1 0;
#X connect 15 0 16 0;
#X connect 16 0 17 0;
#X connect 17 0 18 0;
#X connect 17 0 21 0;
#X connect 17 0 23 0;
#X connect 17 0 25 0;
#X connect 17 0 27 0;
#X connect 17 0 31 0;
#X connect 17 0 32 0;
#X connect 17 0 33 0;
#X connect 18 0 19 0;
#X connect 19 0 64 0;
#X connect 20 0 67 0;
#X connect 21 0 20 0;
#X connect 22 0 68 0;
#X connect 23 0 22 0;
#X connect 24 0 69 0;
#X connect 25 0 24 0;
#X connect 26 0 70 0;
#X connect 27 0 26 0;
#X connect 28 0 71 0;
#X connect 29 0 72 0;
#X connect 30 0 73 0;
#X connect 31 0 28 0;
#X connect 32 0 29 0;
#X connect 33 0 30 0;
#X connect 34 0 35 0;
#X connect 35 0 38 1;
#X connect 36 0 162 0;
#X connect 37 0 63 0;
#X connect 38 0 39 0;
#X connect 39 0 120 0;
#X connect 40 0 39 1;
#X connect 41 0 52 0;
#X connect 46 0 53 0;
#X connect 47 0 0 0;
#X connect 47 0 0 1;
#X connect 48 0 47 1;
#X connect 51 0 136 0;
#X connect 52 0 40 0;
#X connect 53 0 48 0;
#X connect 54 0 2 0;
#X connect 55 0 62 0;
#X connect 55 0 163 0;
#X connect 55 0 159 0;
#X connect 56 0 199 0;
#X connect 57 0 58 0;
#X connect 58 0 61 0;
#X connect 59 0 60 0;
#X connect 60 0 61 1;
#X connect 61 0 199 0;
#X connect 62 0 56 0;
#X connect 63 0 38 0;
#X connect 65 0 66 0;
#X connect 66 0 98 0;
#X connect 66 0 54 0;
#X connect 66 0 176 0;
#X connect 75 0 47 0;
#X connect 77 0 47 0;
#X connect 78 0 47 0;
#X connect 79 0 47 0;
#X connect 80 0 47 0;
#X connect 81 0 47 0;
#X connect 82 0 92 0;
#X connect 83 0 84 0;
#X connect 84 0 85 1;
#X connect 85 0 141 0;
#X connect 86 0 140 0;
#X connect 86 0 105 0;
#X connect 86 0 175 0;
#X connect 88 0 86 0;
#X connect 89 0 86 0;
#X connect 90 0 86 0;
#X connect 91 0 86 0;
#X connect 92 1 85 0;
#X connect 93 0 94 0;
#X connect 94 0 92 1;
#X connect 95 0 202 0;
#X connect 95 0 224 0;
#X connect 96 0 82 0;
#X connect 97 0 92 2;
#X connect 98 0 3 0;
#X connect 99 0 86 0;
#X connect 100 0 86 0;
#X connect 101 0 86 0;
#X connect 102 0 86 0;
#X connect 103 0 104 1;
#X connect 104 0 122 0;
#X connect 105 0 93 0;
#X connect 106 0 109 1;
#X connect 107 0 106 0;
#X connect 108 0 107 0;
#X connect 109 0 160 0;
#X connect 110 0 109 0;
#X connect 111 0 55 0;
#X connect 111 0 180 0;
#X connect 112 0 36 0;
#X connect 113 0 36 0;
#X connect 114 0 36 0;
#X connect 115 0 36 0;
#X connect 116 0 36 0;
#X connect 117 0 36 0;
#X connect 118 0 36 0;
#X connect 119 0 36 0;
#X connect 122 0 155 0;
#X connect 123 0 51 0;
#X connect 124 0 51 0;
#X connect 126 0 133 0;
#X connect 127 0 130 0;
#X connect 128 0 127 0;
#X connect 129 0 127 1;
#X connect 130 0 132 0;
#X connect 131 0 129 1;
#X connect 132 0 203 0;
#X connect 133 0 132 1;
#X connect 134 0 205 0;
#X connect 135 0 206 0;
#X connect 136 0 126 0;
#X connect 137 0 129 0;
#X connect 138 0 51 0;
#X connect 139 0 51 0;
#X connect 140 0 83 0;
#X connect 141 0 104 0;
#X connect 143 0 96 0;
#X connect 144 0 96 0;
#X connect 145 0 96 0;
#X connect 146 0 96 0;
#X connect 147 0 236 0;
#X connect 148 0 234 0;
#X connect 151 0 161 0;
#X connect 155 0 87 0;
#X connect 157 0 66 0;
#X connect 158 0 55 0;
#X connect 158 0 180 0;
#X connect 159 0 59 0;
#X connect 160 0 74 0;
#X connect 161 0 97 0;
#X connect 162 0 34 0;
#X connect 163 0 57 0;
#X connect 164 0 76 0;
#X connect 165 0 143 0;
#X connect 165 1 143 0;
#X connect 165 2 143 0;
#X connect 165 3 143 0;
#X connect 165 4 143 0;
#X connect 165 5 143 0;
#X connect 165 6 143 0;
#X connect 165 7 144 0;
#X connect 165 8 144 0;
#X connect 165 9 146 0;
#X connect 165 10 146 0;
#X connect 165 11 166 0;
#X connect 165 12 145 0;
#X connect 166 0 96 0;
#X connect 167 0 200 0;
#X connect 168 0 167 0;
#X connect 169 0 167 0;
#X connect 170 0 167 0;
#X connect 171 0 167 0;
#X connect 172 0 167 0;
#X connect 173 0 167 0;
#X connect 175 0 165 0;
#X connect 175 0 174 0;
#X connect 176 0 5 0;
#X connect 177 0 198 0;
#X connect 178 0 179 0;
#X connect 179 0 177 1;
#X connect 180 0 184 0;
#X connect 181 0 183 0;
#X connect 182 0 185 0;
#X connect 183 0 177 0;
#X connect 184 0 178 0;
#X connect 185 0 177 0;
#X connect 186 0 66 0;
#X connect 188 0 201 0;
#X connect 189 0 188 0;
#X connect 190 0 188 0;
#X connect 191 0 188 0;
#X connect 192 0 188 0;
#X connect 193 0 188 0;
#X connect 194 0 188 0;
#X connect 195 0 188 0;
#X connect 196 0 188 0;
#X connect 197 0 180 0;
#X connect 197 0 55 0;
#X connect 198 0 76 0;
#X connect 199 0 164 0;
#X connect 200 0 186 0;
#X connect 201 0 197 0;
#X connect 202 0 94 1;
#X connect 203 0 204 0;
#X connect 204 0 207 0;
#X connect 205 0 128 0;
#X connect 206 0 131 0;
#X connect 207 0 125 0;
#X connect 214 0 218 0;
#X connect 216 0 217 0;
#X connect 218 0 221 0;
#X connect 219 0 218 0;
#X connect 222 0 234 0;
#X connect 222 0 232 0;
#X connect 222 0 9 0;
#X connect 223 0 104 2;
#X connect 223 0 103 0;
#X connect 224 0 225 0;
#X connect 225 0 227 0;
#X connect 226 0 223 0;
#X connect 227 0 226 0;
#X connect 228 0 95 0;
#X connect 228 0 229 0;
#X connect 229 0 230 0;
#X connect 230 0 231 1;
#X connect 231 0 9 0;
#X connect 232 0 231 0;
#X connect 234 0 228 0;
#X connect 235 0 14 0;
#X connect 236 0 122 1;
#X connect 237 0 228 0;
#X connect 238 0 250 0;
#X connect 239 0 246 0;
#X connect 240 0 241 0;
#X connect 241 0 239 1;
#X connect 242 0 244 0;
#X connect 243 0 245 0;
#X connect 244 0 239 0;
#X connect 245 0 239 0;
#X connect 246 0 247 0;
#X connect 248 0 47 0;
#X connect 249 0 240 0;
#X connect 250 0 249 0;
#X connect 251 0 264 0;
#X connect 252 0 253 0;
#X connect 253 0 256 0;
#X connect 254 0 255 0;
#X connect 255 0 256 1;
#X connect 256 0 264 0;
#X connect 257 0 251 0;
#X connect 258 0 259 0;
#X connect 258 0 257 0;
#X connect 258 0 272 0;
#X connect 259 0 252 0;
#X connect 260 0 263 1;
#X connect 261 0 260 0;
#X connect 262 0 261 0;
#X connect 263 0 265 0;
#X connect 264 0 263 0;
#X connect 265 0 269 0;
#X connect 270 0 258 0;
#X connect 271 0 47 0;
#X connect 272 0 254 0;
