#N canvas 27 25 1413 678 12;
#X obj 728 322 dac~;
#X obj 248 88 metro;
#X obj 33 671 vline~;
#X obj 132 670 vline~;
#X obj 133 695 osc~;
#X obj 247 680 vline~;
#X obj 206 701 pow~ 1.5;
#X obj 132 722 *~;
#X obj 283 16 loadbang;
#X floatatom 284 67 5 0 0 0 - - - 0;
#X obj 247 116 bng 19 250 50 0 empty empty empty 0 -10 0 12 #fcfcfc #000000 #000000;
#X obj 248 141 int 1;
#X obj 294 162 + 1;
#X floatatom 249 166 5 0 0 0 - - - 0;
#X obj 199 44 tgl 19 0 empty empty empty 0 -10 0 12 #fcfcfc #000000 #000000 0 1;
#X obj 249 189 % 8;
#X obj 249 214 + 1;
#X floatatom 248 237 5 0 0 0 - - - 0;
#X obj 30 271 sel 1;
#X obj 31 294 bng 19 250 50 0 empty empty empty 0 -10 0 12 #fcfcfc #000000 #000000;
#X obj 93 294 bng 19 250 50 0 empty empty empty 0 -10 0 12 #fcfcfc #000000 #000000;
#X obj 92 271 sel 2;
#X obj 154 294 bng 19 250 50 0 empty empty empty 0 -10 0 12 #fcfcfc #000000 #000000;
#X obj 153 271 sel 3;
#X obj 217 292 bng 19 250 50 0 empty empty empty 0 -10 0 12 #fcfcfc #000000 #000000;
#X obj 216 269 sel 4;
#X obj 278 292 bng 19 250 50 0 empty empty empty 0 -10 0 12 #fcfcfc #000000 #000000;
#X obj 277 269 sel 5;
#X obj 334 293 bng 19 250 50 0 empty empty empty 0 -10 0 12 #fcfcfc #000000 #000000;
#X obj 394 294 bng 19 250 50 0 empty empty empty 0 -10 0 12 #fcfcfc #000000 #000000;
#X obj 457 293 bng 19 250 50 0 empty empty empty 0 -10 0 12 #fcfcfc #000000 #000000;
#X obj 333 270 sel 6;
#X obj 394 270 sel 7;
#X obj 457 268 sel 8;
#X obj 1607 699 vline~;
#X obj 1605 723 pow~ 1.5;
#X obj 1529 618 bng 19 250 50 0 empty empty empty 0 -10 0 12 #fcfcfc #000000 #000000;
#X obj 1472 674 noise~;
#X obj 1559 752 *~;
#X obj 1388 846 *~;
#X floatatom 1698 728 5 0 0 0 - - - 0;
#X obj 1696 664 loadbang;
#X text 109 237 Sequencer;
#X text 122 529 Sub kick;
#X text 1559 619 Closed Hat;
#X text 291 207 Metronome \, counts from 1 to 8 in a loop;
#X obj 727 126 loadbang;
#X obj 731 284 *~;
#X floatatom 730 188 5 0 0 0 - - - 0;
#X text 718 342 DAC Out;
#X text 327 69 BPM: 135;
#X text 78 44 START DSP HERE:;
#X obj 1166 614 bng 19 250 50 0 empty empty empty 0 -10 0 12 #fcfcfc #000000 #000000;
#X msg 1697 697 0.15;
#X msg 729 153 0.5;
#X msg 33 644 0.3 0 \, 0 10 0;
#X obj 488 641 bng 19 250 50 0 empty empty empty 0 -10 0 12 #fcfcfc #000000 #000000;
#X obj 378 708 vline~;
#X obj 477 707 vline~;
#X obj 478 732 osc~;
#X obj 592 717 vline~;
#X obj 551 738 pow~ 1.5;
#X obj 477 759 *~;
#X msg 378 681 0.3 0 \, 0 10 0;
#X obj 1471 718 bp~ 6000 8;
#X obj 29 335 s one;
#X obj 100 559 r one;
#X obj 141 588 bng 19 250 50 0 empty empty empty 0 -10 0 12 #fcfcfc #000000 #000000;
#X obj 85 333 s two;
#X obj 146 333 s three;
#X obj 213 333 s four;
#X obj 274 332 s five;
#X obj 333 333 s six;
#X obj 388 331 s seven;
#X obj 455 327 s eight;
#X obj 136 841 s~ out1;
#X obj 646 272 r~ out1;
#X obj 591 843 s~ out2;
#X obj 655 235 r~ out2;
#X obj 723 233 r~ out3;
#X obj 792 232 r~ out4;
#X obj 789 267 r~ out5;
#X obj 787 295 r~ out6;
#X obj 1099 278 phasor~;
#X obj 1260 244 vline~;
#X obj 1261 272 pow~ 1.5;
#X obj 1244 320 *~;
#X obj 1174 147 bng 19 250 50 0 empty empty empty 0 -10 0 12 #fcfcfc #000000 #000000;
#X obj 1248 488 s~ out3;
#X obj 963 98 r one;
#X obj 1023 100 r two;
#X obj 1081 100 r three;
#X obj 1145 101 r four;
#X obj 1120 317 vcf~ 1, f 9;
#X obj 1152 254 vline~;
#X obj 1169 286 *~;
#X floatatom 1452 262 5 0 0 0 - - - 0;
#X obj 1085 243 mtof;
#X floatatom 1522 264 5 0 0 0 - - - 0;
#X msg 134 639 250 0 \, 55 40 0;
#X obj 1201 99 r five;
#X obj 1261 101 r six;
#X obj 1319 101 r seven;
#X obj 1383 102 r eight;
#X obj 1306 318 * -1;
#X obj 1244 383 clip~;
#X msg 1146 219 1 5 \, 0 100 5;
#X floatatom 265 802 5 0 0 0 - - - 0;
#X msg 264 773 500;
#X obj 264 746 loadbang;
#X obj 127 782 lop~;
#X obj 122 751 clip~ -0.5 0.5;
#X floatatom 1525 388 5 0 0 0 - - - 0;
#X obj 1521 334 loadbang;
#X obj 1524 416 * 0.01;
#X obj 599 587 r eight;
#X obj 1466 573 r one;
#X obj 1526 575 r two;
#X obj 1584 575 r three;
#X obj 1648 576 r four;
#X obj 1704 574 r five;
#X obj 1764 576 r six;
#X obj 1822 576 r seven;
#X obj 1886 577 r eight;
#X obj 1386 884 s~ out4;
#X text 1695 630 Volume;
#X obj 1250 415 *~;
#X obj 1115 566 r three;
#X obj 1257 569 r seven;
#X obj 1177 910 s~ out6;
#X obj 1315 664 vline~;
#X obj 1168 750 +~;
#X floatatom 1165 723 5 0 0 0 - - - 0;
#X obj 1223 750 *~;
#X obj 1196 776 osc~;
#X floatatom 1271 723 5 0 0 0 - - - 0;
#X obj 1239 776 *~;
#X obj 1317 723 pow~ 1.5;
#X obj 1163 671 loadbang;
#X obj 1245 666 loadbang;
#X msg 1160 643 1 3 \, 0 40 3;
#X obj 1200 702 osc~ 500;
#X obj 1058 574 r one;
#X obj 1192 571 r five;
#X msg 1248 213 1 4 \, 0.9 70 4 \, 0 30 70;
#X obj 1241 352 *~ 7;
#X text 676 85 Master Volume control;
#X msg 899 215 33;
#X msg 995 212 36;
#X msg 1102 213 57;
#X msg 1029 212 40;
#X obj 1440 328 loadbang;
#X obj 1453 210 loadbang;
#X text 1166 60 Acid Synth;
#X text 1456 187 Cutoff;
#X obj 1522 213 loadbang;
#X text 1529 186 Resonance;
#X text 1439 301 Volume;
#X text 1524 308 Distortion;
#X obj 1250 446 hip~ 800;
#X text 1165 527 Beep;
#X msg 1524 362 400;
#X obj 148 557 r four;
#X obj 536 587 r five;
#X obj 2 273;
#X msg 601 672 1 4 \, 0 30 4;
#X obj 140 816 *~ 1;
#X msg 1520 237 6;
#X msg 284 40 135;
#X msg 1535 669 1 5 \, 0 30 5;
#X msg 479 676 350 0 \, 55 40 0;
#X obj 476 808 bp~ 300 2;
#X msg 1438 354 0.5;
#X obj 884 170 select 0 1 2 3 4 5 6 7 8 9 10 11 12;
#X msg 1064 213 45;
#X obj 258 483 bng 19 250 50 0 empty empty empty 0 -10 0 12 #fcfcfc #000000 #000000;
#X obj 152 440 r two;
#X obj 210 440 r three;
#X obj 285 435 r five;
#X obj 345 437 r six;
#X obj 403 437 r seven;
#X obj 467 438 r eight;
#X floatatom 833 145 5 0 0 0 - - - 0;
#X obj 871 114 random 13;
#X msg 257 635 1 4 \, 0.4 60 4 \, 0 300 60, f 15;
#X obj 755 777 *~;
#X obj 841 736 vline~;
#X obj 839 760 pow~ 1.5;
#X obj 773 670 bng 19 250 50 0 empty empty empty 0 -10 0 12 #fcfcfc #000000 #000000;
#X obj 718 706 noise~;
#X obj 654 738 noise~;
#X obj 714 743 bp~ 9000 5;
#X msg 769 714 1 5 \, 0.3 15 5 \, 0 200 15;
#X obj 665 777 bp~ 700 8;
#X obj 241 538 select 0;
#X text 584 557 Snare;
#X obj 787 559 bng 19 250 50 0 empty empty empty 0 -10 0 12 #fcfcfc #000000 #000000;
#X obj 576 510 r one;
#X obj 636 512 r two;
#X obj 694 512 r three;
#X obj 758 513 r four;
#X obj 814 511 r five;
#X obj 874 513 r six;
#X obj 932 513 r seven;
#X obj 996 514 r eight;
#X obj 775 612 select 0;
#X obj 760 809 *~ 0.4;
#X obj 474 784 *~ 0.4;
#X obj 237 511 random 20;
#X obj 771 585 random 20;
#X obj 1387 263 * 100;
#X msg 1453 236 100;
#X obj 1175 803 clip~ -0.06 0.06;
#X obj 1183 843 hip~ 2000;
#X msg 1164 698 100;
#X msg 1270 692 1000;
#X obj 1181 878 *~ 2;
#X connect 1 0 10 0;
#X connect 2 0 111 0;
#X connect 3 0 4 0;
#X connect 4 0 7 0;
#X connect 5 0 6 0;
#X connect 6 0 7 1;
#X connect 7 0 111 0;
#X connect 8 0 168 0;
#X connect 9 0 1 1;
#X connect 10 0 11 0;
#X connect 11 0 12 0;
#X connect 11 0 13 0;
#X connect 12 0 11 1;
#X connect 13 0 15 0;
#X connect 14 0 1 0;
#X connect 15 0 16 0;
#X connect 16 0 17 0;
#X connect 17 0 18 0;
#X connect 17 0 21 0;
#X connect 17 0 23 0;
#X connect 17 0 25 0;
#X connect 17 0 27 0;
#X connect 17 0 31 0;
#X connect 17 0 32 0;
#X connect 17 0 33 0;
#X connect 18 0 19 0;
#X connect 19 0 65 0;
#X connect 20 0 68 0;
#X connect 21 0 20 0;
#X connect 22 0 69 0;
#X connect 23 0 22 0;
#X connect 24 0 70 0;
#X connect 25 0 24 0;
#X connect 26 0 71 0;
#X connect 27 0 26 0;
#X connect 28 0 72 0;
#X connect 29 0 73 0;
#X connect 30 0 74 0;
#X connect 31 0 28 0;
#X connect 32 0 29 0;
#X connect 33 0 30 0;
#X connect 34 0 35 0;
#X connect 35 0 38 1;
#X connect 36 0 169 0;
#X connect 37 0 64 0;
#X connect 38 0 39 0;
#X connect 39 0 124 0;
#X connect 40 0 39 1;
#X connect 41 0 53 0;
#X connect 46 0 54 0;
#X connect 47 0 0 0;
#X connect 47 0 0 1;
#X connect 48 0 47 1;
#X connect 52 0 140 0;
#X connect 53 0 40 0;
#X connect 54 0 48 0;
#X connect 55 0 2 0;
#X connect 56 0 63 0;
#X connect 56 0 170 0;
#X connect 56 0 165 0;
#X connect 57 0 207 0;
#X connect 58 0 59 0;
#X connect 59 0 62 0;
#X connect 60 0 61 0;
#X connect 61 0 62 1;
#X connect 62 0 207 0;
#X connect 63 0 57 0;
#X connect 64 0 38 0;
#X connect 66 0 67 0;
#X connect 67 0 99 0;
#X connect 67 0 55 0;
#X connect 67 0 184 0;
#X connect 76 0 47 0;
#X connect 78 0 47 0;
#X connect 79 0 47 0;
#X connect 80 0 47 0;
#X connect 81 0 47 0;
#X connect 82 0 47 0;
#X connect 83 0 93 0;
#X connect 84 0 85 0;
#X connect 85 0 86 1;
#X connect 86 0 145 0;
#X connect 87 0 144 0;
#X connect 87 0 106 0;
#X connect 87 0 183 0;
#X connect 89 0 87 0;
#X connect 90 0 87 0;
#X connect 91 0 87 0;
#X connect 92 0 87 0;
#X connect 93 1 86 0;
#X connect 94 0 95 0;
#X connect 95 0 93 1;
#X connect 96 0 210 0;
#X connect 97 0 83 0;
#X connect 98 0 93 2;
#X connect 99 0 3 0;
#X connect 100 0 87 0;
#X connect 101 0 87 0;
#X connect 102 0 87 0;
#X connect 103 0 87 0;
#X connect 104 0 105 1;
#X connect 105 0 126 0;
#X connect 106 0 94 0;
#X connect 107 0 110 1;
#X connect 108 0 107 0;
#X connect 109 0 108 0;
#X connect 110 0 166 0;
#X connect 111 0 110 0;
#X connect 112 0 114 0;
#X connect 113 0 161 0;
#X connect 114 0 105 2;
#X connect 114 0 104 0;
#X connect 115 0 56 0;
#X connect 115 0 188 0;
#X connect 116 0 36 0;
#X connect 117 0 36 0;
#X connect 118 0 36 0;
#X connect 119 0 36 0;
#X connect 120 0 36 0;
#X connect 121 0 36 0;
#X connect 122 0 36 0;
#X connect 123 0 36 0;
#X connect 126 0 159 0;
#X connect 127 0 52 0;
#X connect 128 0 52 0;
#X connect 130 0 137 0;
#X connect 131 0 134 0;
#X connect 132 0 131 0;
#X connect 133 0 131 1;
#X connect 134 0 136 0;
#X connect 135 0 133 1;
#X connect 136 0 212 0;
#X connect 137 0 136 1;
#X connect 138 0 214 0;
#X connect 139 0 215 0;
#X connect 140 0 130 0;
#X connect 141 0 133 0;
#X connect 142 0 52 0;
#X connect 143 0 52 0;
#X connect 144 0 84 0;
#X connect 145 0 105 0;
#X connect 147 0 97 0;
#X connect 148 0 97 0;
#X connect 149 0 97 0;
#X connect 150 0 97 0;
#X connect 151 0 172 0;
#X connect 152 0 211 0;
#X connect 155 0 167 0;
#X connect 159 0 88 0;
#X connect 161 0 112 0;
#X connect 162 0 67 0;
#X connect 163 0 56 0;
#X connect 163 0 188 0;
#X connect 165 0 60 0;
#X connect 166 0 75 0;
#X connect 167 0 98 0;
#X connect 168 0 9 0;
#X connect 169 0 34 0;
#X connect 170 0 58 0;
#X connect 171 0 77 0;
#X connect 172 0 126 1;
#X connect 173 0 147 0;
#X connect 173 1 147 0;
#X connect 173 2 147 0;
#X connect 173 3 147 0;
#X connect 173 4 147 0;
#X connect 173 5 147 0;
#X connect 173 6 147 0;
#X connect 173 7 148 0;
#X connect 173 8 148 0;
#X connect 173 9 150 0;
#X connect 173 10 150 0;
#X connect 173 11 174 0;
#X connect 173 12 149 0;
#X connect 174 0 97 0;
#X connect 175 0 208 0;
#X connect 176 0 175 0;
#X connect 177 0 175 0;
#X connect 178 0 175 0;
#X connect 179 0 175 0;
#X connect 180 0 175 0;
#X connect 181 0 175 0;
#X connect 183 0 173 0;
#X connect 183 0 182 0;
#X connect 184 0 5 0;
#X connect 185 0 206 0;
#X connect 186 0 187 0;
#X connect 187 0 185 1;
#X connect 188 0 192 0;
#X connect 189 0 191 0;
#X connect 190 0 193 0;
#X connect 191 0 185 0;
#X connect 192 0 186 0;
#X connect 193 0 185 0;
#X connect 194 0 67 0;
#X connect 196 0 209 0;
#X connect 197 0 196 0;
#X connect 198 0 196 0;
#X connect 199 0 196 0;
#X connect 200 0 196 0;
#X connect 201 0 196 0;
#X connect 202 0 196 0;
#X connect 203 0 196 0;
#X connect 204 0 196 0;
#X connect 205 0 188 0;
#X connect 205 0 56 0;
#X connect 206 0 77 0;
#X connect 207 0 171 0;
#X connect 208 0 194 0;
#X connect 209 0 205 0;
#X connect 210 0 95 1;
#X connect 211 0 96 0;
#X connect 212 0 213 0;
#X connect 213 0 216 0;
#X connect 214 0 132 0;
#X connect 215 0 135 0;
#X connect 216 0 129 0;
